<?xml version="1.0" encoding="UTF-8" standalone="no"?>
<!-- Created with Inkscape (http://www.inkscape.org/) -->

<svg
   width="1200"
   height="400"
   viewBox="0 0 1200 400"
   version="1.1"
   id="svg1"
   inkscape:version="1.4.2 (2aeb623e1d, 2025-05-12)"
   sodipodi:docname="image-flex-area.svg"
   xmlns:inkscape="http://www.inkscape.org/namespaces/inkscape"
   xmlns:sodipodi="http://sodipodi.sourceforge.net/DTD/sodipodi-0.dtd"
   xmlns:xlink="http://www.w3.org/1999/xlink"
   xmlns="http://www.w3.org/2000/svg"
   xmlns:svg="http://www.w3.org/2000/svg"
   xmlns:rdf="http://www.w3.org/1999/02/22-rdf-syntax-ns#"
   xmlns:cc="http://creativecommons.org/ns#"
   xmlns:dc="http://purl.org/dc/elements/1.1/">
  <title
     id="title5">Flex Area Image</title>
  <sodipodi:namedview
     id="namedview1"
     pagecolor="#ffffff"
     bordercolor="#000000"
     borderopacity="0.25"
     inkscape:showpageshadow="2"
     inkscape:pageopacity="0.0"
     inkscape:pagecheckerboard="0"
     inkscape:deskcolor="#d1d1d1"
     inkscape:document-units="px"
     inkscape:zoom="1.14"
     inkscape:cx="387.7193"
     inkscape:cy="288.15789"
     inkscape:window-width="1920"
     inkscape:window-height="1016"
     inkscape:window-x="0"
     inkscape:window-y="0"
     inkscape:window-maximized="1"
     inkscape:current-layer="layer1"
     inkscape:export-bgcolor="#00000000"
     showgrid="false" />
  <defs
     id="defs1">
    <pattern
       inkscape:collect="always"
       xlink:href="#DiamondPlate"
       preserveAspectRatio="xMidYMid"
       id="pattern19"
       patternTransform="rotate(45)"
       x="0"
       y="0" />
    <pattern
       patternUnits="userSpaceOnUse"
       width="83"
       height="84"
       preserveAspectRatio="xMidYMid"
       id="DiamondPlate"
       inkscape:stockid="Diamond Plate"
       style="fill:#000000"
       patternTransform="matrix(0.35355339,0.35355339,-0.35355339,0.35355339,0,0)"
       x="0"
       y="0"
       inkscape:label="Diamondplate"
       inkscape:collect="always"
       inkscape:isstock="true">
      <path
         id="rect22"
         style="fill-opacity:1;stroke:none"
         d="m 29.441406,0 c -0.485427,1.590892 -0.802734,3.4057 -0.802734,5.466797 0,5.423014 2.298575,9.285029 3.939453,11.560547 1.640878,-2.275518 3.939453,-6.137533 3.939453,-11.560547 0,-2.061091 -0.315357,-3.875908 -0.800781,-5.466797 z m 42,0 c -0.485427,1.590892 -0.802734,3.4057 -0.802734,5.466797 0,5.423014 2.298575,9.285029 3.939453,11.560547 1.640878,-2.275518 3.939453,-6.137533 3.939453,-11.560547 C 78.517578,3.405706 78.202221,1.590889 77.716797,0 Z M 11.578125,1.527344 c -5.423017,0 -9.283074,2.29858 -11.558594,3.939453 2.27552,1.640874 6.135577,3.939453 11.558594,3.939453 5.451291,0 9.197845,-2.20152 11.560547,-3.939453 C 20.77597,3.728865 17.029416,1.527344 11.578125,1.527344 Z m 42,0 c -5.423019,0 -9.283075,2.29858 -11.558594,3.939453 2.275519,1.640874 6.135575,3.939453 11.558594,3.939453 5.451291,0 9.197845,-2.20152 11.560547,-3.939453 C 62.77597,3.728865 59.029416,1.527344 53.578125,1.527344 Z m -42,13.378906 C 9.840198,17.268958 7.638672,21.0155 7.638672,26.4668 c 0,5.42301 2.298575,9.28503 3.939453,11.56054 1.640878,-2.27551 3.939453,-6.13753 3.939453,-11.56054 0,-5.4513 -2.201525,-9.197842 -3.939453,-11.56055 z m 42,0 c -1.737928,2.362708 -3.939453,6.10925 -3.939453,11.56055 0,5.42301 2.298575,9.28503 3.939453,11.56054 1.640878,-2.27551 3.939453,-6.13753 3.939453,-11.56054 0,-5.4513 -2.201525,-9.197842 -3.939453,-11.56055 z m -21,7.62109 c -5.423019,0 -9.283075,2.29858 -11.558594,3.93946 2.275519,1.64087 6.135575,3.93945 11.558594,3.93945 5.451291,0 9.197845,-2.20152 11.560547,-3.93945 -2.362702,-1.73793 -6.109256,-3.93946 -11.560547,-3.93946 z m 41,0 c -5.423015,0 -9.283076,2.29858 -11.558594,3.93946 2.275518,1.64087 6.135579,3.93945 11.558594,3.93945 4.031903,0 7.125505,-1.20476 9.421875,-2.53516 V 25.0625 C 80.70363,23.7321 77.610028,22.52734 73.578125,22.52734 Z M 0,25.0625 v 2.80859 C 0.808414,27.40274 1.523479,26.91931 2.138672,26.4668 1.523479,26.01428 0.808414,25.53085 0,25.0625 Z m 32.578125,10.84375 c -1.737928,2.36271 -3.939453,6.10925 -3.939453,11.56055 0,5.42301 2.298575,9.28503 3.939453,11.56054 1.640878,-2.27551 3.939453,-6.13753 3.939453,-11.56054 0,-5.4513 -2.201525,-9.19784 -3.939453,-11.56055 z m 42,0 c -1.737928,2.36271 -3.939453,6.10925 -3.939453,11.56055 0,5.42301 2.298575,9.28503 3.939453,11.56054 1.640878,-2.27551 3.939453,-6.13753 3.939453,-11.56054 0,-5.4513 -2.201525,-9.19784 -3.939453,-11.56055 z m -63,7.62109 c -5.423018,0 -9.283075,2.29858 -11.558594,3.93946 2.275519,1.64087 6.135576,3.93945 11.558594,3.93945 5.451291,0 9.197845,-2.20152 11.560547,-3.93945 -2.362702,-1.73793 -6.109256,-3.93946 -11.560547,-3.93946 z m 42,0 c -5.423019,0 -9.283075,2.29858 -11.558594,3.93946 2.275519,1.64087 6.135575,3.93945 11.558594,3.93945 5.451291,0 9.197845,-2.20152 11.560547,-3.93945 -2.362702,-1.73793 -6.109256,-3.93946 -11.560547,-3.93946 z m -42,13.37891 C 9.840198,59.26896 7.638672,63.0155 7.638672,68.4668 c 0,5.42301 2.298575,9.28503 3.939453,11.56054 1.640878,-2.27551 3.939453,-6.13753 3.939453,-11.56054 0,-5.4513 -2.201525,-9.19784 -3.939453,-11.56055 z m 42,0 c -1.737928,2.36271 -3.939453,6.10925 -3.939453,11.56055 0,5.42301 2.298575,9.28503 3.939453,11.56054 1.640878,-2.27551 3.939453,-6.13753 3.939453,-11.56054 0,-5.4513 -2.201525,-9.19784 -3.939453,-11.56055 z m -21,7.62109 c -5.423019,0 -9.283075,2.29858 -11.558594,3.93946 2.275519,1.64087 6.135575,3.93945 11.558594,3.93945 5.451291,0 9.197845,-2.20152 11.560547,-3.93945 -2.362702,-1.73793 -6.109256,-3.93946 -11.560547,-3.93946 z m 41,0 c -5.423015,0 -9.283076,2.29858 -11.558594,3.93946 2.275518,1.64087 6.135579,3.93945 11.558594,3.93945 4.031903,0 7.125505,-1.20476 9.421875,-2.53516 V 67.0625 C 80.70363,65.7321 77.610028,64.52734 73.578125,64.52734 Z M 0,67.0625 v 2.80859 C 0.808414,69.40274 1.523479,68.91931 2.138672,68.4668 1.523479,68.01428 0.808414,67.53085 0,67.0625 Z M 32.578125,77.90625 C 31.497295,79.37563 30.239861,81.38322 29.441406,84 h 6.275391 c -0.798455,-2.61679 -2.05784,-4.62436 -3.138672,-6.09375 z m 42,0 C 73.497295,79.37563 72.239861,81.38322 71.441406,84 h 6.275391 c -0.798455,-2.61679 -2.05784,-4.62436 -3.138672,-6.09375 z" />
    </pattern>
    <clipPath
       clipPathUnits="userSpaceOnUse"
       id="clipPath15">
      <rect
         style="fill:none;stroke:#000000;stroke-linecap:butt;stroke-linejoin:bevel;paint-order:stroke markers fill;stop-color:#000000"
         id="rect15-7"
         width="45.034248"
         height="38.955639"
         x="262.48285"
         y="121.00073" />
    </clipPath>
    <clipPath
       clipPathUnits="userSpaceOnUse"
       id="clipPath25">
      <rect
         style="fill:#ff0000;stroke:none;stroke-width:3;stroke-linecap:square;stroke-linejoin:miter;paint-order:stroke markers fill;stop-color:#000000"
         id="rect25-8"
         width="78"
         height="45.033199"
         x="763.61322"
         y="452.82422" />
    </clipPath>
    <clipPath
       clipPathUnits="userSpaceOnUse"
       id="clipPath54">
      <path
         id="path54"
         style="stroke-width:0.0999999;stroke-linecap:square;paint-order:markers fill stroke;stop-color:#000000"
         d="m 1691.1994,-792.32001 h 1634.8919 v 92.82806 H 1691.1994 Z" />
    </clipPath>
    <rect
       x="89.21933"
       y="196.28253"
       width="676.6394"
       height="194.85503"
       id="rect2" />
  </defs>
  <g
     inkscape:label="Layer 1"
     inkscape:groupmode="layer"
     id="layer1">
    <rect
       style="mix-blend-mode:normal;fill:url(#pattern19);fill-opacity:1;stroke-width:1.03946"
       id="rect1"
       width="1200.4562"
       height="398.64355"
       x="0"
       y="0.71375465" />
  </g>
  <metadata
     id="metadata2">
    <rdf:RDF>
      <cc:Work
         rdf:about="">
        <cc:license
           rdf:resource="http://creativecommons.org/licenses/by-sa/4.0/" />
        <dc:creator>
          <cc:Agent>
            <dc:title>Andy Futcher</dc:title>
          </cc:Agent>
        </dc:creator>
        <dc:language>English</dc:language>
        <dc:title>Flex Area Image</dc:title>
      </cc:Work>
      <cc:License
         rdf:about="http://creativecommons.org/licenses/by-sa/4.0/">
        <cc:permits
           rdf:resource="http://creativecommons.org/ns#Reproduction" />
        <cc:permits
           rdf:resource="http://creativecommons.org/ns#Distribution" />
        <cc:requires
           rdf:resource="http://creativecommons.org/ns#Notice" />
        <cc:requires
           rdf:resource="http://creativecommons.org/ns#Attribution" />
        <cc:permits
           rdf:resource="http://creativecommons.org/ns#DerivativeWorks" />
        <cc:requires
           rdf:resource="http://creativecommons.org/ns#ShareAlike" />
      </cc:License>
    </rdf:RDF>
  </metadata>
  <g
     inkscape:groupmode="layer"
     id="layer2"
     inkscape:label="Text">
    <text
       xml:space="preserve"
       id="text2"
       style="font-style:normal;font-variant:normal;font-weight:bold;font-stretch:normal;font-size:50.4279px;font-family:Arial;-inkscape-font-specification:'Arial, Bold';font-variant-ligatures:normal;font-variant-caps:normal;font-variant-numeric:normal;font-variant-east-asian:normal;text-align:start;writing-mode:lr-tb;direction:ltr;white-space:pre;shape-inside:url(#rect2);display:inline;mix-blend-mode:difference;fill:#fc0000;fill-opacity:1;stroke-width:0.99983;stroke-dasharray:none"
       transform="matrix(2.0656072,0,0,2.0590976,11.19004,-275.78137)"
       inkscape:label="text2"><tspan
         x="89.21875"
         y="241.70636"
         id="tspan1">Flex Area Image</tspan></text>
  </g>
</svg>
