<svg xmlns="http://www.w3.org/2000/svg" width="16" height="16"><path d="M8 15A7 7 0 1 1 8 1a7 7 0 0 1 0 14m0 1A8 8 0 1 0 8 0a8 8 0 0 0 0 16M7 6.5l-.205.914-.693.578-.738-.334-.333-.783.063-1.019.608-.788.732.085.445.632L7 6.5h0m4 0l-.205.914-.693.578-.738-.334-.333-.783.063-1.019.608-.788.732.085.445.632L11 6.5h0M4.884 4.022l1.76-.055.198-.785-.905-.311-1.379.197-1.052.853.341.536.629-.204.41-.232h-.001m6.232 0l-1.774-.036-.212-.792.934-.323 1.379.195 1.046.854-.34.532-.623-.198-.41-.232h.001M8 10l-1.308.389-1.001.948.121.694.726.184 3.189.018.603-.409-.179-.693-.954-.806L8 10"/></svg>
