<svg xmlns="http://www.w3.org/2000/svg" width="16" height="16"><path d="M6.831 11.43l1.777-.168 1.629.774.26-.349-.402-.532-2.082-1.458-1.549.822.367.91h0M6 11.333l-.536 1.268-1.302.357-1.028-.945.034-1.411 1.125-2.26.643.347.39.786L6 11.333h0M7 6.5l-.898 1.492-.798-.415-.297-.9.15-.991.699-.67.874.458L7 6.5h0m4 0l-.898 1.492-.798-.415-.297-.9.15-.991.699-.67.874.458L11 6.5h0m-1.5-3l1.15-.451 2.178 1.51.044.733-.724.08-.891-1.021-1.356-.36L9.5 3.5h0M7 3.5l-.952-.482-2.393 1.568.019.751.753-.04.836-.957L6.5 4l.5-.5h0M8 15A7 7 0 1 1 8 1a7 7 0 0 1 0 14m0 1A8 8 0 1 0 8 0a8 8 0 0 0 0 16"/></svg>
