<svg xmlns="http://www.w3.org/2000/svg" width="16" height="16"><path d="M9.146 5.146l.964.256.39.391.646-.647.739.089-.175.763-.503.502.647.646-.089.739-.763-.175-.502-.503-.646.647-.739-.089.175-.763.503-.502-.647-.646v-.708h0m-5 0l.964.256.39.391.646-.647.739.089-.175.763-.503.502.647.646-.089.739-.763-.175-.502-.503-.646.647-.739-.089.175-.763.503-.502-.647-.646v-.708h0M10 11l-1.177 1.802-2.133-.29-.593-2.07L7.715 9.02l1.591.472L10 11h0m-2 4A7 7 0 1 1 8 1a7 7 0 0 1 0 14m0 1A8 8 0 1 0 8 0a8 8 0 0 0 0 16"/></svg>
