<svg xmlns="http://www.w3.org/2000/svg" width="16" height="16"><path d="M7 6.25l-.293.884L6 7.5l-.707-.366L5 6.25l.293-.884L6 5l.707.366L7 6.25m3 1.25l.707-.366L11 6.25l-.293-.884L10 5l-.707.366L9 6.25l.293.884L10 7.5m2.98 3.25l-.511.896L11.5 12h-7l-1.145-.53-.335-1.217v-.003l.511-.896L4.5 9h7l1.145.53.335 1.217v.003m-8.48.75h.25v-.75H3.531l.969.75m7 0l.969-.75H11.25v.75h.25m.969-1.25L11.5 9.5h-.25v.75h1.219M4.5 9.5l-.969.75H4.75V9.5H4.5m1.75 2v-.75h-1v.75h1m.5 0h1v-.75h-1v.75m1.5 0h1v-.75h-1v.75m1.5 0h1v-.75h-1v.75m1-2h-1v.75h1V9.5m-1.5 0h-1v.75h1V9.5m-1.5 0h-1v.75h1V9.5m-1.5 0h-1v.75h1V9.5M8 16A8 8 0 1 0 8 0a8 8 0 0 0 0 16m0-1A7 7 0 1 1 8 1a7 7 0 0 1 0 14"/></svg>
