<svg xmlns="http://www.w3.org/2000/svg" width="16" height="16"><path d="M8 16A8 8 0 1 0 8 0a8 8 0 0 0 0 16m0-1A7 7 0 1 1 8 1a7 7 0 0 1 0 14m4.946-3.602l-2.711 2.17-3.459.305-3.049-1.661L2.108 9.14l.245-.748.783-.249L8 8.5l4.864-.358.782.249.245.749-.946 2.258m-.078-2.25L8 9.5l-4.868-.352.517 1.317L8 10.75l4.351-.285.517-1.317m-1.36 2.416L8 11.75l-3.507-.186 1.612 1.063L8 13l1.895-.373 1.612-1.063h.001M6.488 7l.179-1-.391-1.414L5.333 4l-.942.586L4 6l.178 1 1.155-1 1.155 1M12 6l-.178 1-1.155-1-1.155 1-.179-1 .391-1.414.943-.586.943.586L12 6"/></svg>
