<svg xmlns="http://www.w3.org/2000/svg" width="16" height="16"><path d="M11.315 10.014c.905-.148.744.993-.113 1.541-2.338 2.077-6.12 1.773-7.2-1.083.055-.58.655-.474 1.039-.364 1.35.275 2.74.529 4.117.301.724-.095 1.448-.235 2.157-.394zM4.756 4.566c.369-.736 1.499-.732 1.961-.092.917 1.22-.691 3.382-1.113 3.489-3.887-1.507-2.494-3.332-1.73-3.521a1.1 1.1 0 0 1 .883.124zm6.488 0c.676-.454 1.674.074 1.746.867.156 1.535-2.313 2.504-2.734 2.525-2.581-3.125-.558-4.1.222-3.94.322.053.615.257.766.548zM8 15A7 7 0 1 1 8 1a7 7 0 1 1 0 14m0 1A8 8 0 1 0 8 0a8 8 0 0 0-8 8 8 8 0 0 0 8 8"/></svg>
