<svg xmlns="http://www.w3.org/2000/svg" width="16" height="16"><path d="M12.493 13.368a7 7 0 1 1 2.489-4.858 2.29 2.29 0 0 1 .975.328 8 8 0 1 0-2.654 5.152 9 9 0 0 1-.81-.622m-3.731-3.22l-1.107.318-.639-.388.474-.609 2.282-.378.577.795-.488.972.49 1.157-.237.7-.732.222-2.297-.649.135-.688.788.028.987.263-.286-.553v-.701l.502-.571-.448.082v.001m.766-.087h0 0m.002 1.867l-.006.001.006-.001M6 8l.731-.475.264-.872-.146-.951-.648-.672-.754.221-.387.732.013 1.092.629.857L6 8h0m2.757-.563l.901-.379.954-.232.581.52.673-.006-.354-1.134-1.262-.457-1.687 1.007.194.68h0M14 9.828l1.117-.279.836.803c-.019 1.273-.751 1.913-1.654 2.711-1.295-.059-1.817-1.273-2.298-2.324.399-1.148.895-1.243 1.999-.911h0"/></svg>
