<svg xmlns="http://www.w3.org/2000/svg" width="16" height="16"><path d="M8 15A7 7 0 1 1 8 1a7 7 0 0 1 0 14m0 1A8 8 0 1 0 8 0a8 8 0 0 0 0 16M4.285 9.567l.524.031.366.401.768.833 1.332.599 1.452-.015 1.333-.577.973-1.087.309-.243.367.071.246.282-.056.389-.642.89-.837.669-2.028.655-2.111-.291-.941-.514-.787-.766-.381-.518-.069-.625.183-.183M7 6.5l-.182.867-.616.602-.677-.153-.403-.602-.088-1.111.534-.956.6-.122.506.364L7 6.5h0m1.757-.437l.448.004.347.306.354.321.47.048.669-.449.297-.249.401.019.245.366-.102.411-.655.637-.729.264-.761-.063-.683-.347-.495-.588.194-.68"/></svg>
